<svg xmlns="http://www.w3.org/2000/svg" width="400" height="300" viewBox="0 0 400 300">
<defs>
<style>
.logo-text { font-family: 'Cormorant Garamond', serif; font-weight: 300; letter-spacing: 0.45em; }
</style>
<linearGradient id="flameGrad" x1="0%" y1="100%" x2="0%" y2="0%">
<stop offset="0%" stop-color="#FF4500"/>
<stop offset="50%" stop-color="#FF8C00"/>
<stop offset="100%" stop-color="#FFD700" stop-opacity="0.3"/>
</linearGradient>
<linearGradient id="flameMid" x1="0%" y1="100%" x2="0%" y2="0%">
<stop offset="0%" stop-color="#FF6B00"/>
<stop offset="100%" stop-color="#FFD700" stop-opacity="0"/>
</linearGradient>
</defs>

<g transform="translate(200, 145)">
  <path
    d="M0,60 C-18,40 -22,20 -10,-5 C-5,10 2,8 0,-20 C8,0 18,10 14,30 C22,15 20,-5 14,-30 C28,0 30,30 18,55 C24,42 22,25 16,15 C20,35 14,50 0,60Z"
    fill="url(#flameGrad)"/>
  <path
    d="M0,60 C-14,45 -16,28 -6,8 C-2,20 4,18 2,-5 C10,12 16,22 12,38 C18,25 16,8 10,-12 C22,8 22,32 12,52 C16,40 14,26 8,18 C12,34 8,48 0,60Z"
    fill="url(#flameMid)" opacity="0.6"/>
  <ellipse cx="0" cy="65" rx="14" ry="4" fill="#FF4500" opacity="0.15"/>
  <line x1="0" y1="-38" x2="0" y2="-70"
    stroke="#FFD700" stroke-width="0.7"
    stroke-dasharray="2,5" opacity="0.6"/>
  <circle cx="0" cy="-78" r="3.5"
    fill="none" stroke="#FFD700" stroke-width="1" opacity="0.8"/>
</g>

<text x="200" y="238"
  text-anchor="middle"
  class="logo-text"
  font-size="13"
  fill="#FFFFFF"
  opacity="0.88">BEYOND FEAR</text>

</svg>
